<?xml version="1.0" standalone="no"?>
<!DOCTYPE svg PUBLIC "-//W3C//DTD SVG 20010904//EN"
 "http://www.w3.org/TR/2001/REC-SVG-20010904/DTD/svg10.dtd">
<svg version="1.0" xmlns="http://www.w3.org/2000/svg"
 width="752.000000pt" height="752.000000pt" viewBox="0 0 752.000000 752.000000"
 preserveAspectRatio="xMidYMid meet">
<metadata>
Created by potrace 1.14, written by Peter Selinger 2001-2017
</metadata>
<g transform="translate(0.000000,752.000000) scale(0.100000,-0.100000)"
fill="#000000" stroke="none">
<path d="M3741 7474 c-31 -35 -149 -262 -451 -868 -226 -451 -416 -837 -422
-858 -10 -33 -9 -41 5 -55 20 -20 43 -22 202 -23 175 0 201 8 247 78 14 20
112 211 219 425 127 255 200 389 212 393 27 9 53 -20 96 -106 20 -41 83 -163
138 -270 55 -107 116 -232 134 -277 53 -134 134 -219 224 -239 51 -11 207 -11
249 -1 108 26 104 51 -48 349 -68 134 -256 506 -418 828 -162 322 -306 604
-320 628 l-25 43 -42 -47z"/>
<path d="M3355 5209 c-170 -21 -326 -86 -444 -187 -143 -122 -229 -249 -279
-414 -75 -242 -31 -579 101 -772 112 -165 306 -292 604 -392 275 -93 345 -127
412 -199 69 -75 68 -150 -4 -213 -50 -44 -116 -67 -245 -86 -119 -17 -237 -11
-413 20 -188 32 -310 36 -350 10 -53 -36 -62 -73 -62 -266 0 -255 9 -285 90
-321 42 -19 187 -52 282 -65 26 -3 57 -8 68 -11 37 -10 459 -11 520 -2 33 5
83 11 110 14 377 44 671 290 776 650 19 65 24 107 26 225 1 80 -3 166 -8 190
-6 25 -13 56 -15 70 -10 51 -58 157 -100 221 -120 182 -324 309 -709 441 -188
65 -279 124 -326 213 -31 57 -21 86 55 160 46 45 75 65 109 74 51 15 233 17
542 6 200 -7 200 -7 235 17 19 13 39 33 45 44 6 12 10 115 10 250 0 186 -3
233 -15 252 -19 29 -80 62 -128 68 -62 8 -823 10 -887 3z"/>
<path d="M5536 5183 c-2 -2 -496 -15 -617 -16 l-77 -1 -38 -80 -39 -81 0
-1260 c0 -1082 2 -1267 15 -1310 16 -55 17 -59 19 -78 1 -12 157 -18 577 -19
83 -1 116 16 130 65 5 17 9 185 8 372 -1 330 2 376 31 440 7 17 16 40 19 52 7
21 8 21 44 5 95 -44 125 -68 173 -139 27 -40 49 -74 49 -76 0 -2 36 -63 80
-136 44 -73 80 -135 80 -136 0 -7 155 -261 189 -310 58 -84 116 -120 212 -132
75 -10 602 -9 618 1 6 4 11 15 11 24 0 10 -59 114 -131 232 -73 118 -140 229
-149 245 -10 17 -82 140 -161 275 -131 225 -142 248 -143 294 0 48 2 52 50 90
133 109 222 216 274 331 27 59 61 155 55 155 -3 0 -1 10 4 23 5 12 12 45 16
72 3 28 9 66 12 85 2 19 5 96 5 170 0 116 -4 147 -26 223 -46 156 -118 278
-226 388 -103 104 -238 184 -340 203 -19 3 -45 8 -57 10 -54 11 -658 28 -667
19z m294 -514 c66 -15 161 -64 213 -109 76 -67 110 -190 95 -338 -18 -167 -98
-254 -283 -308 -80 -23 -198 -23 -256 -1 -73 28 -82 57 -84 261 -1 93 2 190 6
215 3 25 10 71 13 101 10 80 23 125 45 144 44 40 159 56 251 35z"/>
<path d="M787 5174 c-1 -1 -44 -4 -95 -7 -128 -9 -176 -31 -205 -94 -20 -45
-22 -62 -21 -243 1 -211 9 -245 57 -272 17 -9 128 -13 458 -13 454 0 469 -1
469 -42 0 -14 -28 -76 -53 -118 -57 -95 -118 -199 -305 -520 -118 -203 -223
-383 -234 -400 -10 -16 -21 -36 -25 -44 -3 -8 -61 -107 -127 -221 -159 -272
-182 -318 -211 -428 -23 -91 -28 -130 -28 -233 0 -111 19 -165 67 -188 24 -11
175 -14 870 -13 463 0 866 3 896 7 88 10 139 40 163 94 19 42 21 64 21 226 -1
212 -10 257 -57 282 -29 15 -79 17 -462 19 -236 1 -440 2 -452 3 -30 2 -54 28
-49 56 4 24 59 128 81 155 11 14 123 201 168 280 10 19 23 40 27 45 15 19 276
480 355 625 43 80 116 208 163 285 166 273 200 386 178 585 -8 76 -30 126 -68
154 -27 19 -45 20 -804 20 -426 1 -776 0 -777 0z"/>
<path d="M1135 1894 c-38 -6 -98 -20 -133 -32 -126 -41 -100 0 -441 -682 -169
-338 -328 -660 -353 -715 -26 -55 -66 -143 -91 -195 -24 -52 -57 -124 -72
-159 l-29 -63 24 -18 c14 -10 34 -20 45 -22 11 -2 1658 -3 3660 -2 l3640 1 68
22 c37 12 66 25 64 29 -12 20 -494 996 -550 1112 -93 194 -177 372 -177 376 0
3 -23 50 -51 107 -62 125 -128 195 -210 223 -101 34 -294 21 -325 -21 -20 -26
-8 -60 73 -220 208 -407 526 -1046 545 -1090 30 -74 30 -83 0 -103 -25 -16
-196 -17 -3017 -19 -1644 -1 -3009 0 -3032 3 -50 6 -73 25 -73 61 0 14 77 182
171 372 95 190 202 409 239 486 37 77 102 212 145 300 83 170 97 208 89 230
-11 28 -106 36 -209 19z"/>
</g>
</svg>
